<svg xmlns="http://www.w3.org/2000/svg" xmlns:xlink="http://www.w3.org/1999/xlink" width="1024" zoomAndPan="magnify" viewBox="0 0 768 576" height="768" preserveAspectRatio="xMidYMid meet" version="1.0"><defs><clipPath id="34aac4b72f"><path d="M 259 260 L 409 260 L 409 383 L 259 383 Z M 259 260 " clip-rule="nonzero"/></clipPath><clipPath id="f109368fea"><path d="M 250.410156 310.667969 L 287.292969 251.484375 L 417.453125 332.601562 L 380.566406 391.785156 Z M 250.410156 310.667969 " clip-rule="nonzero"/></clipPath><clipPath id="c010b33cf8"><path d="M 263.5 289.664062 L 274.203125 272.492188 C 281.433594 260.890625 296.699219 257.347656 308.300781 264.578125 L 396.355469 319.453125 C 407.957031 326.683594 411.5 341.949219 404.269531 353.550781 L 393.566406 370.722656 C 386.335938 382.324219 371.074219 385.867188 359.472656 378.636719 L 271.414062 323.757812 C 259.8125 316.53125 256.269531 301.265625 263.5 289.664062 Z M 263.5 289.664062 " clip-rule="nonzero"/></clipPath><clipPath id="79ae814402"><path d="M 0 0 L 150 0 L 150 123 L 0 123 Z M 0 0 " clip-rule="nonzero"/></clipPath><clipPath id="05bbf8be9b"><path d="M -8.589844 50.667969 L 28.292969 -8.515625 L 158.453125 72.601562 L 121.566406 131.785156 Z M -8.589844 50.667969 " clip-rule="nonzero"/></clipPath><clipPath id="b843d99d0b"><path d="M 4.5 29.664062 L 15.203125 12.492188 C 22.433594 0.890625 37.699219 -2.652344 49.300781 4.578125 L 137.355469 59.453125 C 148.957031 66.683594 152.5 81.949219 145.269531 93.550781 L 134.566406 110.722656 C 127.335938 122.324219 112.074219 125.867188 100.472656 118.636719 L 12.414062 63.757812 C 0.8125 56.53125 -2.730469 41.265625 4.5 29.664062 Z M 4.5 29.664062 " clip-rule="nonzero"/></clipPath><clipPath id="c6e3b6d2b9"><rect x="0" width="150" y="0" height="123"/></clipPath><clipPath id="2715501a6a"><path d="M 210 270 L 284 270 L 284 320 L 210 320 Z M 210 270 " clip-rule="nonzero"/></clipPath><clipPath id="933dd1b48b"><path d="M 208.402344 311.511719 L 214.523438 269.128906 L 284.886719 279.289062 L 278.765625 321.671875 Z M 208.402344 311.511719 " clip-rule="nonzero"/></clipPath><clipPath id="7bd4d7d008"><path d="M 210.222656 298.890625 L 212.699219 281.746094 C 213.183594 278.398438 214.976562 275.382812 217.683594 273.359375 C 220.394531 271.332031 223.796875 270.46875 227.140625 270.949219 L 272.1875 277.457031 C 275.535156 277.941406 278.550781 279.734375 280.578125 282.441406 C 282.601562 285.148438 283.46875 288.550781 282.984375 291.898438 L 280.507812 309.042969 C 280.023438 312.390625 278.230469 315.40625 275.523438 317.433594 C 272.816406 319.457031 269.414062 320.324219 266.066406 319.839844 L 221.019531 313.332031 C 217.671875 312.851562 214.65625 311.058594 212.632812 308.347656 C 210.605469 305.640625 209.742188 302.238281 210.222656 298.890625 Z M 210.222656 298.890625 " clip-rule="nonzero"/></clipPath><clipPath id="1ae2cc9ca1"><path d="M 0 0.238281 L 73.679688 0.238281 L 73.679688 50 L 0 50 Z M 0 0.238281 " clip-rule="nonzero"/></clipPath><clipPath id="6ded54e5b3"><path d="M -1.597656 41.511719 L 4.523438 -0.871094 L 74.886719 9.289062 L 68.765625 51.671875 Z M -1.597656 41.511719 " clip-rule="nonzero"/></clipPath><clipPath id="918a3a5378"><path d="M 0.222656 28.890625 L 2.699219 11.746094 C 3.183594 8.398438 4.976562 5.382812 7.683594 3.359375 C 10.394531 1.332031 13.796875 0.46875 17.140625 0.949219 L 62.1875 7.457031 C 65.535156 7.941406 68.550781 9.734375 70.578125 12.441406 C 72.601562 15.148438 73.46875 18.550781 72.984375 21.898438 L 70.507812 39.042969 C 70.023438 42.390625 68.230469 45.40625 65.523438 47.433594 C 62.816406 49.457031 59.414062 50.324219 56.066406 49.839844 L 11.019531 43.332031 C 7.671875 42.851562 4.65625 41.058594 2.632812 38.347656 C 0.605469 35.640625 -0.257812 32.238281 0.222656 28.890625 Z M 0.222656 28.890625 " clip-rule="nonzero"/></clipPath><clipPath id="9e5635dfab"><rect x="0" width="74" y="0" height="50"/></clipPath><clipPath id="a3b78c845e"><path d="M 243 215 L 313 215 L 313 299 L 243 299 Z M 243 215 " clip-rule="nonzero"/></clipPath><clipPath id="dcf8dec47f"><path d="M 239.683594 231.484375 L 285.15625 211.394531 L 316.464844 282.273438 L 270.992188 302.359375 Z M 239.683594 231.484375 " clip-rule="nonzero"/></clipPath><clipPath id="348fb0a32d"><path d="M 251.34375 226.332031 L 273.492188 216.546875 C 276.585938 215.183594 280.097656 215.101562 283.25 216.320312 C 286.402344 217.542969 288.941406 219.964844 290.308594 223.058594 L 311.3125 270.605469 C 312.675781 273.695312 312.757812 277.207031 311.539062 280.359375 C 310.316406 283.511719 307.894531 286.050781 304.800781 287.417969 L 282.652344 297.203125 C 279.558594 298.570312 276.046875 298.652344 272.894531 297.429688 C 269.742188 296.207031 267.203125 293.785156 265.835938 290.691406 L 244.832031 243.148438 C 243.46875 240.054688 243.386719 236.542969 244.605469 233.390625 C 245.828125 230.238281 248.25 227.699219 251.34375 226.332031 Z M 251.34375 226.332031 " clip-rule="nonzero"/></clipPath><clipPath id="a6e96ba272"><path d="M 0.359375 0.0390625 L 69.960938 0.0390625 L 69.960938 83.800781 L 0.359375 83.800781 Z M 0.359375 0.0390625 " clip-rule="nonzero"/></clipPath><clipPath id="e9733d463c"><path d="M -3.316406 16.484375 L 42.15625 -3.605469 L 73.464844 67.273438 L 27.992188 87.359375 Z M -3.316406 16.484375 " clip-rule="nonzero"/></clipPath><clipPath id="ff26b29db0"><path d="M 8.34375 11.332031 L 30.492188 1.546875 C 33.585938 0.183594 37.097656 0.101562 40.25 1.320312 C 43.402344 2.542969 45.941406 4.964844 47.308594 8.058594 L 68.3125 55.605469 C 69.675781 58.695312 69.757812 62.207031 68.539062 65.359375 C 67.316406 68.511719 64.894531 71.050781 61.800781 72.417969 L 39.652344 82.203125 C 36.558594 83.570312 33.046875 83.652344 29.894531 82.429688 C 26.742188 81.207031 24.203125 78.785156 22.835938 75.691406 L 1.832031 28.148438 C 0.46875 25.054688 0.386719 21.542969 1.605469 18.390625 C 2.828125 15.238281 5.25 12.699219 8.34375 11.332031 Z M 8.34375 11.332031 " clip-rule="nonzero"/></clipPath><clipPath id="83296df6c5"><rect x="0" width="70" y="0" height="84"/></clipPath><clipPath id="91de36ea9f"><path d="M 259 269 L 313 269 L 313 320 L 259 320 Z M 259 269 " clip-rule="nonzero"/></clipPath><clipPath id="6ee99abb02"><path d="M 251.890625 306.289062 L 300.753906 261.09375 L 320.773438 282.734375 L 271.910156 327.933594 Z M 251.890625 306.289062 " clip-rule="nonzero"/></clipPath><clipPath id="843fc6ec45"><path d="M 276.304688 283.710938 C 262.820312 296.179688 256.375 311.136719 261.902344 317.113281 C 267.429688 323.085938 282.839844 317.820312 296.324219 305.351562 C 309.804688 292.878906 316.253906 277.925781 310.726562 271.949219 C 305.199219 265.972656 289.789062 271.238281 276.304688 283.710938 Z M 276.304688 283.710938 " clip-rule="nonzero"/></clipPath><clipPath id="011d30548a"><path d="M 0 0 L 54 0 L 54 51 L 0 51 Z M 0 0 " clip-rule="nonzero"/></clipPath><clipPath id="f185179536"><path d="M -7.109375 37.289062 L 41.753906 -7.90625 L 61.773438 13.734375 L 12.910156 58.933594 Z M -7.109375 37.289062 " clip-rule="nonzero"/></clipPath><clipPath id="d8ea325c32"><path d="M 17.304688 14.710938 C 3.820312 27.179688 -2.625 42.136719 2.902344 48.113281 C 8.429688 54.085938 23.839844 48.820312 37.324219 36.351562 C 50.804688 23.878906 57.253906 8.925781 51.726562 2.949219 C 46.199219 -3.027344 30.789062 2.238281 17.304688 14.710938 Z M 17.304688 14.710938 " clip-rule="nonzero"/></clipPath><clipPath id="0779a3d2db"><rect x="0" width="54" y="0" height="51"/></clipPath><clipPath id="502c964a41"><path d="M 318.734375 184.265625 L 559.6875 184.265625 L 559.6875 388.519531 L 318.734375 388.519531 Z M 318.734375 184.265625 " clip-rule="nonzero"/></clipPath><clipPath id="fcb7f5717f"><path d="M 366.734375 184.265625 L 511.601562 184.265625 C 524.332031 184.265625 536.542969 189.324219 545.542969 198.324219 C 554.546875 207.328125 559.601562 219.535156 559.601562 232.265625 L 559.601562 340.519531 C 559.601562 353.25 554.546875 365.457031 545.542969 374.457031 C 536.542969 383.460938 524.332031 388.519531 511.601562 388.519531 L 366.734375 388.519531 C 354.003906 388.519531 341.792969 383.460938 332.792969 374.457031 C 323.789062 365.457031 318.734375 353.25 318.734375 340.519531 L 318.734375 232.265625 C 318.734375 219.535156 323.789062 207.328125 332.792969 198.324219 C 341.792969 189.324219 354.003906 184.265625 366.734375 184.265625 Z M 366.734375 184.265625 " clip-rule="nonzero"/></clipPath><clipPath id="9ed92322a2"><path d="M 0.734375 0.265625 L 241.679688 0.265625 L 241.679688 204.519531 L 0.734375 204.519531 Z M 0.734375 0.265625 " clip-rule="nonzero"/></clipPath><clipPath id="ffc19e5fb1"><path d="M 48.734375 0.265625 L 193.601562 0.265625 C 206.332031 0.265625 218.542969 5.324219 227.542969 14.324219 C 236.546875 23.328125 241.601562 35.535156 241.601562 48.265625 L 241.601562 156.519531 C 241.601562 169.25 236.546875 181.457031 227.542969 190.457031 C 218.542969 199.460938 206.332031 204.519531 193.601562 204.519531 L 48.734375 204.519531 C 36.003906 204.519531 23.792969 199.460938 14.792969 190.457031 C 5.789062 181.457031 0.734375 169.25 0.734375 156.519531 L 0.734375 48.265625 C 0.734375 35.535156 5.789062 23.328125 14.792969 14.324219 C 23.792969 5.324219 36.003906 0.265625 48.734375 0.265625 Z M 48.734375 0.265625 " clip-rule="nonzero"/></clipPath><clipPath id="7e8abeb003"><rect x="0" width="242" y="0" height="205"/></clipPath><clipPath id="65e535724f"><path d="M 333.886719 205.257812 L 542.179688 205.257812 L 542.179688 323.230469 L 333.886719 323.230469 Z M 333.886719 205.257812 " clip-rule="nonzero"/></clipPath><clipPath id="854081b92a"><path d="M 378.136719 205.257812 L 497.875 205.257812 C 509.613281 205.257812 520.867188 209.921875 529.167969 218.21875 C 537.464844 226.519531 542.125 237.773438 542.125 249.507812 L 542.125 278.980469 C 542.125 290.714844 537.464844 301.96875 529.167969 310.269531 C 520.867188 318.566406 509.613281 323.230469 497.875 323.230469 L 378.136719 323.230469 C 366.402344 323.230469 355.148438 318.566406 346.847656 310.269531 C 338.550781 301.96875 333.886719 290.714844 333.886719 278.980469 L 333.886719 249.507812 C 333.886719 237.773438 338.550781 226.519531 346.847656 218.21875 C 355.148438 209.921875 366.402344 205.257812 378.136719 205.257812 Z M 378.136719 205.257812 " clip-rule="nonzero"/></clipPath><clipPath id="0d1877141d"><path d="M 0.886719 0.257812 L 209.160156 0.257812 L 209.160156 118.230469 L 0.886719 118.230469 Z M 0.886719 0.257812 " clip-rule="nonzero"/></clipPath><clipPath id="81dadf64b4"><path d="M 45.136719 0.257812 L 164.875 0.257812 C 176.613281 0.257812 187.867188 4.921875 196.167969 13.21875 C 204.464844 21.519531 209.125 32.773438 209.125 44.507812 L 209.125 73.980469 C 209.125 85.714844 204.464844 96.96875 196.167969 105.269531 C 187.867188 113.566406 176.613281 118.230469 164.875 118.230469 L 45.136719 118.230469 C 33.402344 118.230469 22.148438 113.566406 13.847656 105.269531 C 5.550781 96.96875 0.886719 85.714844 0.886719 73.980469 L 0.886719 44.507812 C 0.886719 32.773438 5.550781 21.519531 13.847656 13.21875 C 22.148438 4.921875 33.402344 0.257812 45.136719 0.257812 Z M 45.136719 0.257812 " clip-rule="nonzero"/></clipPath><clipPath id="b973bcee52"><rect x="0" width="210" y="0" height="119"/></clipPath><clipPath id="3c649efd95"><path d="M 443.3125 227.828125 L 513.582031 227.828125 L 513.582031 292.304688 L 443.3125 292.304688 Z M 443.3125 227.828125 " clip-rule="nonzero"/></clipPath><clipPath id="e04c81455f"><path d="M 464.3125 227.828125 L 492.335938 227.828125 C 503.933594 227.828125 513.335938 237.230469 513.335938 248.828125 L 513.335938 271.304688 C 513.335938 282.902344 503.933594 292.304688 492.335938 292.304688 L 464.3125 292.304688 C 452.714844 292.304688 443.3125 282.902344 443.3125 271.304688 L 443.3125 248.828125 C 443.3125 237.230469 452.714844 227.828125 464.3125 227.828125 Z M 464.3125 227.828125 " clip-rule="nonzero"/></clipPath><clipPath id="a05090a956"><path d="M 0.3125 0.828125 L 70.359375 0.828125 L 70.359375 65.304688 L 0.3125 65.304688 Z M 0.3125 0.828125 " clip-rule="nonzero"/></clipPath><clipPath id="e5706eb778"><path d="M 21.3125 0.828125 L 49.335938 0.828125 C 60.933594 0.828125 70.335938 10.230469 70.335938 21.828125 L 70.335938 44.304688 C 70.335938 55.902344 60.933594 65.304688 49.335938 65.304688 L 21.3125 65.304688 C 9.714844 65.304688 0.3125 55.902344 0.3125 44.304688 L 0.3125 21.828125 C 0.3125 10.230469 9.714844 0.828125 21.3125 0.828125 Z M 21.3125 0.828125 " clip-rule="nonzero"/></clipPath><clipPath id="a0a3a61a34"><rect x="0" width="71" y="0" height="66"/></clipPath><clipPath id="2b4ce34d44"><path d="M 364.578125 227.828125 L 434.851562 227.828125 L 434.851562 292.304688 L 364.578125 292.304688 Z M 364.578125 227.828125 " clip-rule="nonzero"/></clipPath><clipPath id="02c2fb17a9"><path d="M 385.578125 227.828125 L 413.601562 227.828125 C 425.203125 227.828125 434.601562 237.230469 434.601562 248.828125 L 434.601562 271.304688 C 434.601562 282.902344 425.203125 292.304688 413.601562 292.304688 L 385.578125 292.304688 C 373.980469 292.304688 364.578125 282.902344 364.578125 271.304688 L 364.578125 248.828125 C 364.578125 237.230469 373.980469 227.828125 385.578125 227.828125 Z M 385.578125 227.828125 " clip-rule="nonzero"/></clipPath><clipPath id="9a2d6fedff"><path d="M 0.578125 0.828125 L 70.640625 0.828125 L 70.640625 65.304688 L 0.578125 65.304688 Z M 0.578125 0.828125 " clip-rule="nonzero"/></clipPath><clipPath id="644edc2bdd"><path d="M 21.578125 0.828125 L 49.601562 0.828125 C 61.203125 0.828125 70.601562 10.230469 70.601562 21.828125 L 70.601562 44.304688 C 70.601562 55.902344 61.203125 65.304688 49.601562 65.304688 L 21.578125 65.304688 C 9.980469 65.304688 0.578125 55.902344 0.578125 44.304688 L 0.578125 21.828125 C 0.578125 10.230469 9.980469 0.828125 21.578125 0.828125 Z M 21.578125 0.828125 " clip-rule="nonzero"/></clipPath><clipPath id="84357d3a60"><rect x="0" width="71" y="0" height="66"/></clipPath><clipPath id="c8cea90511"><path d="M 359.597656 208.265625 L 518.738281 208.265625 L 518.738281 274.484375 L 359.597656 274.484375 Z M 359.597656 208.265625 " clip-rule="nonzero"/></clipPath><clipPath id="5a00b82eaf"><path d="M 0.597656 0.265625 L 159.738281 0.265625 L 159.738281 66.484375 L 0.597656 66.484375 Z M 0.597656 0.265625 " clip-rule="nonzero"/></clipPath><clipPath id="3b0a9819a3"><rect x="0" width="160" y="0" height="67"/></clipPath></defs><g clip-path="url(#34aac4b72f)"><g clip-path="url(#f109368fea)"><g clip-path="url(#c010b33cf8)"><g transform="matrix(1, 0, 0, 1, 259, 260)"><g clip-path="url(#c6e3b6d2b9)"><g clip-path="url(#79ae814402)"><g clip-path="url(#05bbf8be9b)"><g clip-path="url(#b843d99d0b)"><path fill="#245898" d="M -8.589844 50.667969 L 28.292969 -8.515625 L 158.453125 72.601562 L 121.566406 131.785156 Z M -8.589844 50.667969 " fill-opacity="1" fill-rule="nonzero"/></g></g></g></g></g></g></g></g><g clip-path="url(#2715501a6a)"><g clip-path="url(#933dd1b48b)"><g clip-path="url(#7bd4d7d008)"><g transform="matrix(1, 0, 0, 1, 210, 270)"><g clip-path="url(#9e5635dfab)"><g clip-path="url(#1ae2cc9ca1)"><g clip-path="url(#6ded54e5b3)"><g clip-path="url(#918a3a5378)"><path fill="#337dd2" d="M -1.597656 41.511719 L 4.523438 -0.871094 L 74.886719 9.289062 L 68.765625 51.671875 Z M -1.597656 41.511719 " fill-opacity="1" fill-rule="nonzero"/></g></g></g></g></g></g></g></g><g clip-path="url(#a3b78c845e)"><g clip-path="url(#dcf8dec47f)"><g clip-path="url(#348fb0a32d)"><g transform="matrix(1, 0, 0, 1, 243, 215)"><g clip-path="url(#83296df6c5)"><g clip-path="url(#a6e96ba272)"><g clip-path="url(#e9733d463c)"><g clip-path="url(#ff26b29db0)"><path fill="#337dd2" d="M -3.316406 16.484375 L 42.15625 -3.605469 L 73.464844 67.273438 L 27.992188 87.359375 Z M -3.316406 16.484375 " fill-opacity="1" fill-rule="nonzero"/></g></g></g></g></g></g></g></g><g clip-path="url(#91de36ea9f)"><g clip-path="url(#6ee99abb02)"><g clip-path="url(#843fc6ec45)"><g transform="matrix(1, 0, 0, 1, 259, 269)"><g clip-path="url(#0779a3d2db)"><g clip-path="url(#011d30548a)"><g clip-path="url(#f185179536)"><g clip-path="url(#d8ea325c32)"><path fill="#337dd2" d="M -7.109375 37.289062 L 41.753906 -7.90625 L 61.773438 13.734375 L 12.910156 58.933594 Z M -7.109375 37.289062 " fill-opacity="1" fill-rule="nonzero"/></g></g></g></g></g></g></g></g><g clip-path="url(#502c964a41)"><g clip-path="url(#fcb7f5717f)"><g transform="matrix(1, 0, 0, 1, 318, 184)"><g clip-path="url(#7e8abeb003)"><g clip-path="url(#9ed92322a2)"><g clip-path="url(#ffc19e5fb1)"><path fill="#337dd2" d="M 0.734375 0.265625 L 241.6875 0.265625 L 241.6875 204.519531 L 0.734375 204.519531 Z M 0.734375 0.265625 " fill-opacity="1" fill-rule="nonzero"/></g></g></g></g></g></g><g clip-path="url(#65e535724f)"><g clip-path="url(#854081b92a)"><g transform="matrix(1, 0, 0, 1, 333, 205)"><g clip-path="url(#b973bcee52)"><g clip-path="url(#0d1877141d)"><g clip-path="url(#81dadf64b4)"><path fill="#255796" d="M 0.886719 0.257812 L 209.179688 0.257812 L 209.179688 118.230469 L 0.886719 118.230469 Z M 0.886719 0.257812 " fill-opacity="1" fill-rule="nonzero"/></g></g></g></g></g></g><g clip-path="url(#3c649efd95)"><g clip-path="url(#e04c81455f)"><g transform="matrix(1, 0, 0, 1, 443, 227)"><g clip-path="url(#a0a3a61a34)"><g clip-path="url(#a05090a956)"><g clip-path="url(#e5706eb778)"><path fill="#f2f2f2" d="M 0.3125 0.828125 L 70.332031 0.828125 L 70.332031 65.304688 L 0.3125 65.304688 Z M 0.3125 0.828125 " fill-opacity="1" fill-rule="nonzero"/></g></g></g></g></g></g><g clip-path="url(#2b4ce34d44)"><g clip-path="url(#02c2fb17a9)"><g transform="matrix(1, 0, 0, 1, 364, 227)"><g clip-path="url(#84357d3a60)"><g clip-path="url(#9a2d6fedff)"><g clip-path="url(#644edc2bdd)"><path fill="#f2f2f2" d="M 0.578125 0.828125 L 70.597656 0.828125 L 70.597656 65.304688 L 0.578125 65.304688 Z M 0.578125 0.828125 " fill-opacity="1" fill-rule="nonzero"/></g></g></g></g></g></g><g clip-path="url(#c8cea90511)"><g transform="matrix(1, 0, 0, 1, 359, 208)"><g clip-path="url(#3b0a9819a3)"><g clip-path="url(#5a00b82eaf)"><path fill="#255796" d="M 0.597656 0.265625 L 159.675781 0.265625 L 159.675781 66.484375 L 0.597656 66.484375 Z M 0.597656 0.265625 " fill-opacity="1" fill-rule="nonzero"/></g></g></g></g></svg>