<svg xmlns="http://www.w3.org/2000/svg" xmlns:xlink="http://www.w3.org/1999/xlink" width="1920" zoomAndPan="magnify" viewBox="0 0 1440 809.999993" height="1080" preserveAspectRatio="xMidYMid meet" version="1.0"><defs><clipPath id="f973f81a6a"><path d="M 595 377 L 745 377 L 745 500 L 595 500 Z M 595 377 " clip-rule="nonzero"/></clipPath><clipPath id="bd60a066cf"><path d="M 586.410156 427.667969 L 623.292969 368.484375 L 753.453125 449.601562 L 716.566406 508.785156 Z M 586.410156 427.667969 " clip-rule="nonzero"/></clipPath><clipPath id="792c06a933"><path d="M 599.5 406.664062 L 610.203125 389.492188 C 617.433594 377.890625 632.699219 374.347656 644.300781 381.578125 L 732.355469 436.453125 C 743.957031 443.683594 747.5 458.949219 740.269531 470.550781 L 729.566406 487.722656 C 722.335938 499.324219 707.074219 502.867188 695.472656 495.636719 L 607.414062 440.757812 C 595.8125 433.53125 592.269531 418.265625 599.5 406.664062 Z M 599.5 406.664062 " clip-rule="nonzero"/></clipPath><clipPath id="d2c317043b"><path d="M 0 0 L 150 0 L 150 123 L 0 123 Z M 0 0 " clip-rule="nonzero"/></clipPath><clipPath id="dfed84d1de"><path d="M -8.589844 50.667969 L 28.292969 -8.515625 L 158.453125 72.601562 L 121.566406 131.785156 Z M -8.589844 50.667969 " clip-rule="nonzero"/></clipPath><clipPath id="b371e75a56"><path d="M 4.5 29.664062 L 15.203125 12.492188 C 22.433594 0.890625 37.699219 -2.652344 49.300781 4.578125 L 137.355469 59.453125 C 148.957031 66.683594 152.5 81.949219 145.269531 93.550781 L 134.566406 110.722656 C 127.335938 122.324219 112.074219 125.867188 100.472656 118.636719 L 12.414062 63.757812 C 0.8125 56.53125 -2.730469 41.265625 4.5 29.664062 Z M 4.5 29.664062 " clip-rule="nonzero"/></clipPath><clipPath id="270baf7e31"><rect x="0" width="150" y="0" height="123"/></clipPath><clipPath id="7cc31d0107"><path d="M 546 387 L 620 387 L 620 437 L 546 437 Z M 546 387 " clip-rule="nonzero"/></clipPath><clipPath id="fe0fbe0900"><path d="M 544.402344 428.511719 L 550.523438 386.128906 L 620.886719 396.289062 L 614.765625 438.671875 Z M 544.402344 428.511719 " clip-rule="nonzero"/></clipPath><clipPath id="e38a14a805"><path d="M 546.222656 415.890625 L 548.699219 398.746094 C 549.183594 395.398438 550.976562 392.382812 553.683594 390.359375 C 556.394531 388.332031 559.796875 387.46875 563.140625 387.949219 L 608.1875 394.457031 C 611.535156 394.941406 614.550781 396.734375 616.578125 399.441406 C 618.601562 402.148438 619.46875 405.550781 618.984375 408.898438 L 616.507812 426.042969 C 616.023438 429.390625 614.230469 432.40625 611.523438 434.433594 C 608.816406 436.457031 605.414062 437.324219 602.066406 436.839844 L 557.019531 430.332031 C 553.671875 429.851562 550.65625 428.058594 548.632812 425.347656 C 546.605469 422.640625 545.742188 419.238281 546.222656 415.890625 Z M 546.222656 415.890625 " clip-rule="nonzero"/></clipPath><clipPath id="c96f4a85c6"><path d="M 0 0.359375 L 73.679688 0.359375 L 73.679688 50 L 0 50 Z M 0 0.359375 " clip-rule="nonzero"/></clipPath><clipPath id="59c0b03eda"><path d="M -1.597656 41.511719 L 4.523438 -0.871094 L 74.886719 9.289062 L 68.765625 51.671875 Z M -1.597656 41.511719 " clip-rule="nonzero"/></clipPath><clipPath id="ab6dc188be"><path d="M 0.222656 28.890625 L 2.699219 11.746094 C 3.183594 8.398438 4.976562 5.382812 7.683594 3.359375 C 10.394531 1.332031 13.796875 0.46875 17.140625 0.949219 L 62.1875 7.457031 C 65.535156 7.941406 68.550781 9.734375 70.578125 12.441406 C 72.601562 15.148438 73.46875 18.550781 72.984375 21.898438 L 70.507812 39.042969 C 70.023438 42.390625 68.230469 45.40625 65.523438 47.433594 C 62.816406 49.457031 59.414062 50.324219 56.066406 49.839844 L 11.019531 43.332031 C 7.671875 42.851562 4.65625 41.058594 2.632812 38.347656 C 0.605469 35.640625 -0.257812 32.238281 0.222656 28.890625 Z M 0.222656 28.890625 " clip-rule="nonzero"/></clipPath><clipPath id="dee2c75bf4"><rect x="0" width="74" y="0" height="50"/></clipPath><clipPath id="89bd8aeb6a"><path d="M 579 332 L 649 332 L 649 416 L 579 416 Z M 579 332 " clip-rule="nonzero"/></clipPath><clipPath id="decc6f3353"><path d="M 575.683594 348.484375 L 621.15625 328.394531 L 652.464844 399.273438 L 606.992188 419.359375 Z M 575.683594 348.484375 " clip-rule="nonzero"/></clipPath><clipPath id="c7c0b1793b"><path d="M 587.34375 343.332031 L 609.492188 333.546875 C 612.585938 332.183594 616.097656 332.101562 619.25 333.320312 C 622.402344 334.542969 624.941406 336.964844 626.308594 340.058594 L 647.3125 387.605469 C 648.675781 390.695312 648.757812 394.207031 647.539062 397.359375 C 646.316406 400.511719 643.894531 403.050781 640.800781 404.417969 L 618.652344 414.203125 C 615.558594 415.570312 612.046875 415.652344 608.894531 414.429688 C 605.742188 413.207031 603.203125 410.785156 601.835938 407.691406 L 580.832031 360.148438 C 579.46875 357.054688 579.386719 353.542969 580.605469 350.390625 C 581.828125 347.238281 584.25 344.699219 587.34375 343.332031 Z M 587.34375 343.332031 " clip-rule="nonzero"/></clipPath><clipPath id="0f8e73c080"><path d="M 0.359375 0 L 69.960938 0 L 69.960938 83.679688 L 0.359375 83.679688 Z M 0.359375 0 " clip-rule="nonzero"/></clipPath><clipPath id="42b654d69d"><path d="M -3.316406 16.484375 L 42.15625 -3.605469 L 73.464844 67.273438 L 27.992188 87.359375 Z M -3.316406 16.484375 " clip-rule="nonzero"/></clipPath><clipPath id="369d1b67de"><path d="M 8.34375 11.332031 L 30.492188 1.546875 C 33.585938 0.183594 37.097656 0.101562 40.25 1.320312 C 43.402344 2.542969 45.941406 4.964844 47.308594 8.058594 L 68.3125 55.605469 C 69.675781 58.695312 69.757812 62.207031 68.539062 65.359375 C 67.316406 68.511719 64.894531 71.050781 61.800781 72.417969 L 39.652344 82.203125 C 36.558594 83.570312 33.046875 83.652344 29.894531 82.429688 C 26.742188 81.207031 24.203125 78.785156 22.835938 75.691406 L 1.832031 28.148438 C 0.46875 25.054688 0.386719 21.542969 1.605469 18.390625 C 2.828125 15.238281 5.25 12.699219 8.34375 11.332031 Z M 8.34375 11.332031 " clip-rule="nonzero"/></clipPath><clipPath id="65e6db93e5"><rect x="0" width="70" y="0" height="84"/></clipPath><clipPath id="d1b03385a5"><path d="M 595 386 L 649 386 L 649 437 L 595 437 Z M 595 386 " clip-rule="nonzero"/></clipPath><clipPath id="d3897c48f8"><path d="M 587.890625 423.289062 L 636.753906 378.09375 L 656.773438 399.734375 L 607.910156 444.933594 Z M 587.890625 423.289062 " clip-rule="nonzero"/></clipPath><clipPath id="f467256a42"><path d="M 612.304688 400.710938 C 598.820312 413.179688 592.375 428.136719 597.902344 434.113281 C 603.429688 440.085938 618.839844 434.820312 632.324219 422.351562 C 645.804688 409.878906 652.253906 394.925781 646.726562 388.949219 C 641.199219 382.972656 625.789062 388.238281 612.304688 400.710938 Z M 612.304688 400.710938 " clip-rule="nonzero"/></clipPath><clipPath id="9481944c0c"><path d="M 0 0 L 54 0 L 54 51 L 0 51 Z M 0 0 " clip-rule="nonzero"/></clipPath><clipPath id="e2948f32e6"><path d="M -7.109375 37.289062 L 41.753906 -7.90625 L 61.773438 13.734375 L 12.910156 58.933594 Z M -7.109375 37.289062 " clip-rule="nonzero"/></clipPath><clipPath id="81013459a7"><path d="M 17.304688 14.710938 C 3.820312 27.179688 -2.625 42.136719 2.902344 48.113281 C 8.429688 54.085938 23.839844 48.820312 37.324219 36.351562 C 50.804688 23.878906 57.253906 8.925781 51.726562 2.949219 C 46.199219 -3.027344 30.789062 2.238281 17.304688 14.710938 Z M 17.304688 14.710938 " clip-rule="nonzero"/></clipPath><clipPath id="e0bc01aca4"><rect x="0" width="54" y="0" height="51"/></clipPath><clipPath id="86c4f1926f"><path d="M 654.734375 301.265625 L 895.6875 301.265625 L 895.6875 505.519531 L 654.734375 505.519531 Z M 654.734375 301.265625 " clip-rule="nonzero"/></clipPath><clipPath id="7c4462ea77"><path d="M 702.734375 301.265625 L 847.601562 301.265625 C 860.332031 301.265625 872.542969 306.324219 881.542969 315.324219 C 890.546875 324.328125 895.601562 336.535156 895.601562 349.265625 L 895.601562 457.519531 C 895.601562 470.25 890.546875 482.457031 881.542969 491.460938 C 872.542969 500.460938 860.332031 505.519531 847.601562 505.519531 L 702.734375 505.519531 C 690.003906 505.519531 677.792969 500.460938 668.792969 491.460938 C 659.789062 482.457031 654.734375 470.25 654.734375 457.519531 L 654.734375 349.265625 C 654.734375 336.535156 659.789062 324.328125 668.792969 315.324219 C 677.792969 306.324219 690.003906 301.265625 702.734375 301.265625 Z M 702.734375 301.265625 " clip-rule="nonzero"/></clipPath><clipPath id="76245b25fd"><path d="M 0.734375 0.265625 L 241.679688 0.265625 L 241.679688 204.519531 L 0.734375 204.519531 Z M 0.734375 0.265625 " clip-rule="nonzero"/></clipPath><clipPath id="a22d554c6d"><path d="M 48.734375 0.265625 L 193.601562 0.265625 C 206.332031 0.265625 218.542969 5.324219 227.542969 14.324219 C 236.546875 23.328125 241.601562 35.535156 241.601562 48.265625 L 241.601562 156.519531 C 241.601562 169.25 236.546875 181.457031 227.542969 190.460938 C 218.542969 199.460938 206.332031 204.519531 193.601562 204.519531 L 48.734375 204.519531 C 36.003906 204.519531 23.792969 199.460938 14.792969 190.460938 C 5.789062 181.457031 0.734375 169.25 0.734375 156.519531 L 0.734375 48.265625 C 0.734375 35.535156 5.789062 23.328125 14.792969 14.324219 C 23.792969 5.324219 36.003906 0.265625 48.734375 0.265625 Z M 48.734375 0.265625 " clip-rule="nonzero"/></clipPath><clipPath id="3b7369848e"><rect x="0" width="242" y="0" height="205"/></clipPath><clipPath id="510d9badd8"><path d="M 669.886719 322.257812 L 878.179688 322.257812 L 878.179688 440.230469 L 669.886719 440.230469 Z M 669.886719 322.257812 " clip-rule="nonzero"/></clipPath><clipPath id="edd736aef6"><path d="M 714.136719 322.257812 L 833.875 322.257812 C 845.613281 322.257812 856.867188 326.921875 865.167969 335.21875 C 873.464844 343.519531 878.125 354.773438 878.125 366.507812 L 878.125 395.980469 C 878.125 407.714844 873.464844 418.96875 865.167969 427.269531 C 856.867188 435.566406 845.613281 440.230469 833.875 440.230469 L 714.136719 440.230469 C 702.402344 440.230469 691.148438 435.566406 682.847656 427.269531 C 674.550781 418.96875 669.886719 407.714844 669.886719 395.980469 L 669.886719 366.507812 C 669.886719 354.773438 674.550781 343.519531 682.847656 335.21875 C 691.148438 326.921875 702.402344 322.257812 714.136719 322.257812 Z M 714.136719 322.257812 " clip-rule="nonzero"/></clipPath><clipPath id="767cc5b12c"><path d="M 0.886719 0.257812 L 209.160156 0.257812 L 209.160156 118.230469 L 0.886719 118.230469 Z M 0.886719 0.257812 " clip-rule="nonzero"/></clipPath><clipPath id="807b080e7e"><path d="M 45.136719 0.257812 L 164.875 0.257812 C 176.613281 0.257812 187.867188 4.921875 196.167969 13.21875 C 204.464844 21.519531 209.125 32.773438 209.125 44.507812 L 209.125 73.980469 C 209.125 85.714844 204.464844 96.96875 196.167969 105.269531 C 187.867188 113.566406 176.613281 118.230469 164.875 118.230469 L 45.136719 118.230469 C 33.402344 118.230469 22.148438 113.566406 13.847656 105.269531 C 5.550781 96.96875 0.886719 85.714844 0.886719 73.980469 L 0.886719 44.507812 C 0.886719 32.773438 5.550781 21.519531 13.847656 13.21875 C 22.148438 4.921875 33.402344 0.257812 45.136719 0.257812 Z M 45.136719 0.257812 " clip-rule="nonzero"/></clipPath><clipPath id="dbc7d3c5a1"><rect x="0" width="210" y="0" height="119"/></clipPath><clipPath id="e7f34903fb"><path d="M 779.3125 344.828125 L 849.582031 344.828125 L 849.582031 409.304688 L 779.3125 409.304688 Z M 779.3125 344.828125 " clip-rule="nonzero"/></clipPath><clipPath id="799bc08c76"><path d="M 800.3125 344.828125 L 828.335938 344.828125 C 839.933594 344.828125 849.335938 354.230469 849.335938 365.828125 L 849.335938 388.304688 C 849.335938 399.902344 839.933594 409.304688 828.335938 409.304688 L 800.3125 409.304688 C 788.714844 409.304688 779.3125 399.902344 779.3125 388.304688 L 779.3125 365.828125 C 779.3125 354.230469 788.714844 344.828125 800.3125 344.828125 Z M 800.3125 344.828125 " clip-rule="nonzero"/></clipPath><clipPath id="4e3492aed7"><path d="M 0.3125 0.828125 L 70.359375 0.828125 L 70.359375 65.304688 L 0.3125 65.304688 Z M 0.3125 0.828125 " clip-rule="nonzero"/></clipPath><clipPath id="e45ba64071"><path d="M 21.3125 0.828125 L 49.335938 0.828125 C 60.933594 0.828125 70.335938 10.230469 70.335938 21.828125 L 70.335938 44.304688 C 70.335938 55.902344 60.933594 65.304688 49.335938 65.304688 L 21.3125 65.304688 C 9.714844 65.304688 0.3125 55.902344 0.3125 44.304688 L 0.3125 21.828125 C 0.3125 10.230469 9.714844 0.828125 21.3125 0.828125 Z M 21.3125 0.828125 " clip-rule="nonzero"/></clipPath><clipPath id="86af2bb225"><rect x="0" width="71" y="0" height="66"/></clipPath><clipPath id="88c6779dad"><path d="M 700.578125 344.828125 L 770.851562 344.828125 L 770.851562 409.304688 L 700.578125 409.304688 Z M 700.578125 344.828125 " clip-rule="nonzero"/></clipPath><clipPath id="aa35dbc896"><path d="M 721.578125 344.828125 L 749.601562 344.828125 C 761.203125 344.828125 770.601562 354.230469 770.601562 365.828125 L 770.601562 388.304688 C 770.601562 399.902344 761.203125 409.304688 749.601562 409.304688 L 721.578125 409.304688 C 709.980469 409.304688 700.578125 399.902344 700.578125 388.304688 L 700.578125 365.828125 C 700.578125 354.230469 709.980469 344.828125 721.578125 344.828125 Z M 721.578125 344.828125 " clip-rule="nonzero"/></clipPath><clipPath id="7a6e271b20"><path d="M 0.578125 0.828125 L 70.640625 0.828125 L 70.640625 65.304688 L 0.578125 65.304688 Z M 0.578125 0.828125 " clip-rule="nonzero"/></clipPath><clipPath id="537e2532a2"><path d="M 21.578125 0.828125 L 49.601562 0.828125 C 61.203125 0.828125 70.601562 10.230469 70.601562 21.828125 L 70.601562 44.304688 C 70.601562 55.902344 61.203125 65.304688 49.601562 65.304688 L 21.578125 65.304688 C 9.980469 65.304688 0.578125 55.902344 0.578125 44.304688 L 0.578125 21.828125 C 0.578125 10.230469 9.980469 0.828125 21.578125 0.828125 Z M 21.578125 0.828125 " clip-rule="nonzero"/></clipPath><clipPath id="0e3fd7c502"><rect x="0" width="71" y="0" height="66"/></clipPath><clipPath id="b90d0f10ca"><path d="M 695.597656 325.265625 L 854.738281 325.265625 L 854.738281 391.484375 L 695.597656 391.484375 Z M 695.597656 325.265625 " clip-rule="nonzero"/></clipPath><clipPath id="93a495b4cd"><path d="M 0.597656 0.265625 L 159.738281 0.265625 L 159.738281 66.484375 L 0.597656 66.484375 Z M 0.597656 0.265625 " clip-rule="nonzero"/></clipPath><clipPath id="8a2c79669d"><rect x="0" width="160" y="0" height="67"/></clipPath></defs><g clip-path="url(#f973f81a6a)"><g clip-path="url(#bd60a066cf)"><g clip-path="url(#792c06a933)"><g transform="matrix(1, 0, 0, 1, 595, 377)"><g clip-path="url(#270baf7e31)"><g clip-path="url(#d2c317043b)"><g clip-path="url(#dfed84d1de)"><g clip-path="url(#b371e75a56)"><path fill="#245898" d="M -8.589844 50.667969 L 28.292969 -8.515625 L 158.453125 72.601562 L 121.566406 131.785156 Z M -8.589844 50.667969 " fill-opacity="1" fill-rule="nonzero"/></g></g></g></g></g></g></g></g><g clip-path="url(#7cc31d0107)"><g clip-path="url(#fe0fbe0900)"><g clip-path="url(#e38a14a805)"><g transform="matrix(1, 0, 0, 1, 546, 387)"><g clip-path="url(#dee2c75bf4)"><g clip-path="url(#c96f4a85c6)"><g clip-path="url(#59c0b03eda)"><g clip-path="url(#ab6dc188be)"><path fill="#337dd2" d="M -1.597656 41.511719 L 4.523438 -0.871094 L 74.886719 9.289062 L 68.765625 51.671875 Z M -1.597656 41.511719 " fill-opacity="1" fill-rule="nonzero"/></g></g></g></g></g></g></g></g><g clip-path="url(#89bd8aeb6a)"><g clip-path="url(#decc6f3353)"><g clip-path="url(#c7c0b1793b)"><g transform="matrix(1, 0, 0, 1, 579, 332)"><g clip-path="url(#65e6db93e5)"><g clip-path="url(#0f8e73c080)"><g clip-path="url(#42b654d69d)"><g clip-path="url(#369d1b67de)"><path fill="#337dd2" d="M -3.316406 16.484375 L 42.15625 -3.605469 L 73.464844 67.273438 L 27.992188 87.359375 Z M -3.316406 16.484375 " fill-opacity="1" fill-rule="nonzero"/></g></g></g></g></g></g></g></g><g clip-path="url(#d1b03385a5)"><g clip-path="url(#d3897c48f8)"><g clip-path="url(#f467256a42)"><g transform="matrix(1, 0, 0, 1, 595, 386)"><g clip-path="url(#e0bc01aca4)"><g clip-path="url(#9481944c0c)"><g clip-path="url(#e2948f32e6)"><g clip-path="url(#81013459a7)"><path fill="#337dd2" d="M -7.109375 37.289062 L 41.753906 -7.90625 L 61.773438 13.734375 L 12.910156 58.933594 Z M -7.109375 37.289062 " fill-opacity="1" fill-rule="nonzero"/></g></g></g></g></g></g></g></g><g clip-path="url(#86c4f1926f)"><g clip-path="url(#7c4462ea77)"><g transform="matrix(1, 0, 0, 1, 654, 301)"><g clip-path="url(#3b7369848e)"><g clip-path="url(#76245b25fd)"><g clip-path="url(#a22d554c6d)"><path fill="#337dd2" d="M 0.734375 0.265625 L 241.6875 0.265625 L 241.6875 204.519531 L 0.734375 204.519531 Z M 0.734375 0.265625 " fill-opacity="1" fill-rule="nonzero"/></g></g></g></g></g></g><g clip-path="url(#510d9badd8)"><g clip-path="url(#edd736aef6)"><g transform="matrix(1, 0, 0, 1, 669, 322)"><g clip-path="url(#dbc7d3c5a1)"><g clip-path="url(#767cc5b12c)"><g clip-path="url(#807b080e7e)"><path fill="#255796" d="M 0.886719 0.257812 L 209.179688 0.257812 L 209.179688 118.230469 L 0.886719 118.230469 Z M 0.886719 0.257812 " fill-opacity="1" fill-rule="nonzero"/></g></g></g></g></g></g><g clip-path="url(#e7f34903fb)"><g clip-path="url(#799bc08c76)"><g transform="matrix(1, 0, 0, 1, 779, 344)"><g clip-path="url(#86af2bb225)"><g clip-path="url(#4e3492aed7)"><g clip-path="url(#e45ba64071)"><path fill="#f2f2f2" d="M 0.3125 0.828125 L 70.332031 0.828125 L 70.332031 65.304688 L 0.3125 65.304688 Z M 0.3125 0.828125 " fill-opacity="1" fill-rule="nonzero"/></g></g></g></g></g></g><g clip-path="url(#88c6779dad)"><g clip-path="url(#aa35dbc896)"><g transform="matrix(1, 0, 0, 1, 700, 344)"><g clip-path="url(#0e3fd7c502)"><g clip-path="url(#7a6e271b20)"><g clip-path="url(#537e2532a2)"><path fill="#f2f2f2" d="M 0.578125 0.828125 L 70.597656 0.828125 L 70.597656 65.304688 L 0.578125 65.304688 Z M 0.578125 0.828125 " fill-opacity="1" fill-rule="nonzero"/></g></g></g></g></g></g><g clip-path="url(#b90d0f10ca)"><g transform="matrix(1, 0, 0, 1, 695, 325)"><g clip-path="url(#8a2c79669d)"><g clip-path="url(#93a495b4cd)"><path fill="#255796" d="M 0.597656 0.265625 L 159.675781 0.265625 L 159.675781 66.484375 L 0.597656 66.484375 Z M 0.597656 0.265625 " fill-opacity="1" fill-rule="nonzero"/></g></g></g></g></svg>