<svg xmlns="http://www.w3.org/2000/svg" xmlns:xlink="http://www.w3.org/1999/xlink" width="1024" zoomAndPan="magnify" viewBox="0 0 768 576" height="768" preserveAspectRatio="xMidYMid meet" version="1.0"><defs><clipPath id="e6831cef4c"><path d="M 259 260 L 409 260 L 409 383 L 259 383 Z M 259 260 " clip-rule="nonzero"/></clipPath><clipPath id="73491bc3e4"><path d="M 250.410156 310.667969 L 287.292969 251.484375 L 417.453125 332.601562 L 380.566406 391.785156 Z M 250.410156 310.667969 " clip-rule="nonzero"/></clipPath><clipPath id="15b3a5442a"><path d="M 263.5 289.664062 L 274.203125 272.492188 C 281.433594 260.890625 296.699219 257.347656 308.300781 264.578125 L 396.355469 319.453125 C 407.957031 326.683594 411.5 341.949219 404.269531 353.550781 L 393.566406 370.722656 C 386.335938 382.324219 371.074219 385.867188 359.472656 378.636719 L 271.414062 323.757812 C 259.8125 316.53125 256.269531 301.265625 263.5 289.664062 Z M 263.5 289.664062 " clip-rule="nonzero"/></clipPath><clipPath id="11bbcd4366"><path d="M 0 0 L 150 0 L 150 123 L 0 123 Z M 0 0 " clip-rule="nonzero"/></clipPath><clipPath id="2f8a234bf2"><path d="M -8.589844 50.667969 L 28.292969 -8.515625 L 158.453125 72.601562 L 121.566406 131.785156 Z M -8.589844 50.667969 " clip-rule="nonzero"/></clipPath><clipPath id="55bf9a412b"><path d="M 4.5 29.664062 L 15.203125 12.492188 C 22.433594 0.890625 37.699219 -2.652344 49.300781 4.578125 L 137.355469 59.453125 C 148.957031 66.683594 152.5 81.949219 145.269531 93.550781 L 134.566406 110.722656 C 127.335938 122.324219 112.074219 125.867188 100.472656 118.636719 L 12.414062 63.757812 C 0.8125 56.53125 -2.730469 41.265625 4.5 29.664062 Z M 4.5 29.664062 " clip-rule="nonzero"/></clipPath><clipPath id="f971f5508b"><rect x="0" width="150" y="0" height="123"/></clipPath><clipPath id="59164230c0"><path d="M 210 270 L 284 270 L 284 320 L 210 320 Z M 210 270 " clip-rule="nonzero"/></clipPath><clipPath id="ca53bc4c05"><path d="M 208.402344 311.511719 L 214.523438 269.128906 L 284.886719 279.289062 L 278.765625 321.671875 Z M 208.402344 311.511719 " clip-rule="nonzero"/></clipPath><clipPath id="cd1532b2ad"><path d="M 210.222656 298.890625 L 212.699219 281.746094 C 213.183594 278.398438 214.976562 275.382812 217.683594 273.359375 C 220.394531 271.332031 223.796875 270.46875 227.140625 270.949219 L 272.1875 277.457031 C 275.535156 277.941406 278.550781 279.734375 280.578125 282.441406 C 282.601562 285.148438 283.46875 288.550781 282.984375 291.898438 L 280.507812 309.042969 C 280.023438 312.390625 278.230469 315.40625 275.523438 317.433594 C 272.816406 319.457031 269.414062 320.324219 266.066406 319.839844 L 221.019531 313.332031 C 217.671875 312.851562 214.65625 311.058594 212.632812 308.347656 C 210.605469 305.640625 209.742188 302.238281 210.222656 298.890625 Z M 210.222656 298.890625 " clip-rule="nonzero"/></clipPath><clipPath id="08a7251dba"><path d="M 0 0.238281 L 73.679688 0.238281 L 73.679688 50 L 0 50 Z M 0 0.238281 " clip-rule="nonzero"/></clipPath><clipPath id="eaf92922ce"><path d="M -1.597656 41.511719 L 4.523438 -0.871094 L 74.886719 9.289062 L 68.765625 51.671875 Z M -1.597656 41.511719 " clip-rule="nonzero"/></clipPath><clipPath id="8e53441b02"><path d="M 0.222656 28.890625 L 2.699219 11.746094 C 3.183594 8.398438 4.976562 5.382812 7.683594 3.359375 C 10.394531 1.332031 13.796875 0.46875 17.140625 0.949219 L 62.1875 7.457031 C 65.535156 7.941406 68.550781 9.734375 70.578125 12.441406 C 72.601562 15.148438 73.46875 18.550781 72.984375 21.898438 L 70.507812 39.042969 C 70.023438 42.390625 68.230469 45.40625 65.523438 47.433594 C 62.816406 49.457031 59.414062 50.324219 56.066406 49.839844 L 11.019531 43.332031 C 7.671875 42.851562 4.65625 41.058594 2.632812 38.347656 C 0.605469 35.640625 -0.257812 32.238281 0.222656 28.890625 Z M 0.222656 28.890625 " clip-rule="nonzero"/></clipPath><clipPath id="f4b6ac8af1"><rect x="0" width="74" y="0" height="50"/></clipPath><clipPath id="8a6e896b55"><path d="M 243 215 L 313 215 L 313 299 L 243 299 Z M 243 215 " clip-rule="nonzero"/></clipPath><clipPath id="f478d521b5"><path d="M 239.683594 231.484375 L 285.15625 211.394531 L 316.464844 282.273438 L 270.992188 302.359375 Z M 239.683594 231.484375 " clip-rule="nonzero"/></clipPath><clipPath id="a29b25dc37"><path d="M 251.34375 226.332031 L 273.492188 216.546875 C 276.585938 215.183594 280.097656 215.101562 283.25 216.320312 C 286.402344 217.542969 288.941406 219.964844 290.308594 223.058594 L 311.3125 270.605469 C 312.675781 273.695312 312.757812 277.207031 311.539062 280.359375 C 310.316406 283.511719 307.894531 286.050781 304.800781 287.417969 L 282.652344 297.203125 C 279.558594 298.570312 276.046875 298.652344 272.894531 297.429688 C 269.742188 296.207031 267.203125 293.785156 265.835938 290.691406 L 244.832031 243.148438 C 243.46875 240.054688 243.386719 236.542969 244.605469 233.390625 C 245.828125 230.238281 248.25 227.699219 251.34375 226.332031 Z M 251.34375 226.332031 " clip-rule="nonzero"/></clipPath><clipPath id="a13df6fb2d"><path d="M 0.359375 0.0390625 L 69.960938 0.0390625 L 69.960938 83.800781 L 0.359375 83.800781 Z M 0.359375 0.0390625 " clip-rule="nonzero"/></clipPath><clipPath id="f3981b8844"><path d="M -3.316406 16.484375 L 42.15625 -3.605469 L 73.464844 67.273438 L 27.992188 87.359375 Z M -3.316406 16.484375 " clip-rule="nonzero"/></clipPath><clipPath id="230c7d63ef"><path d="M 8.34375 11.332031 L 30.492188 1.546875 C 33.585938 0.183594 37.097656 0.101562 40.25 1.320312 C 43.402344 2.542969 45.941406 4.964844 47.308594 8.058594 L 68.3125 55.605469 C 69.675781 58.695312 69.757812 62.207031 68.539062 65.359375 C 67.316406 68.511719 64.894531 71.050781 61.800781 72.417969 L 39.652344 82.203125 C 36.558594 83.570312 33.046875 83.652344 29.894531 82.429688 C 26.742188 81.207031 24.203125 78.785156 22.835938 75.691406 L 1.832031 28.148438 C 0.46875 25.054688 0.386719 21.542969 1.605469 18.390625 C 2.828125 15.238281 5.25 12.699219 8.34375 11.332031 Z M 8.34375 11.332031 " clip-rule="nonzero"/></clipPath><clipPath id="eee13b2868"><rect x="0" width="70" y="0" height="84"/></clipPath><clipPath id="c72f0fc974"><path d="M 259 269 L 313 269 L 313 320 L 259 320 Z M 259 269 " clip-rule="nonzero"/></clipPath><clipPath id="0402a0a275"><path d="M 251.890625 306.289062 L 300.753906 261.09375 L 320.773438 282.734375 L 271.910156 327.933594 Z M 251.890625 306.289062 " clip-rule="nonzero"/></clipPath><clipPath id="4ac33e009a"><path d="M 276.304688 283.710938 C 262.820312 296.179688 256.375 311.136719 261.902344 317.113281 C 267.429688 323.085938 282.839844 317.820312 296.324219 305.351562 C 309.804688 292.878906 316.253906 277.925781 310.726562 271.949219 C 305.199219 265.972656 289.789062 271.238281 276.304688 283.710938 Z M 276.304688 283.710938 " clip-rule="nonzero"/></clipPath><clipPath id="6fe0e6be1e"><path d="M 0 0 L 54 0 L 54 51 L 0 51 Z M 0 0 " clip-rule="nonzero"/></clipPath><clipPath id="b4dcaf1000"><path d="M -7.109375 37.289062 L 41.753906 -7.90625 L 61.773438 13.734375 L 12.910156 58.933594 Z M -7.109375 37.289062 " clip-rule="nonzero"/></clipPath><clipPath id="f0ec9cd86f"><path d="M 17.304688 14.710938 C 3.820312 27.179688 -2.625 42.136719 2.902344 48.113281 C 8.429688 54.085938 23.839844 48.820312 37.324219 36.351562 C 50.804688 23.878906 57.253906 8.925781 51.726562 2.949219 C 46.199219 -3.027344 30.789062 2.238281 17.304688 14.710938 Z M 17.304688 14.710938 " clip-rule="nonzero"/></clipPath><clipPath id="47c3f1d2ee"><rect x="0" width="54" y="0" height="51"/></clipPath><clipPath id="ed122529f9"><path d="M 318.734375 184.265625 L 559.6875 184.265625 L 559.6875 388.519531 L 318.734375 388.519531 Z M 318.734375 184.265625 " clip-rule="nonzero"/></clipPath><clipPath id="86dab24277"><path d="M 366.734375 184.265625 L 511.601562 184.265625 C 524.332031 184.265625 536.542969 189.324219 545.542969 198.324219 C 554.546875 207.328125 559.601562 219.535156 559.601562 232.265625 L 559.601562 340.519531 C 559.601562 353.25 554.546875 365.457031 545.542969 374.460938 C 536.542969 383.460938 524.332031 388.519531 511.601562 388.519531 L 366.734375 388.519531 C 354.003906 388.519531 341.792969 383.460938 332.792969 374.460938 C 323.789062 365.457031 318.734375 353.25 318.734375 340.519531 L 318.734375 232.265625 C 318.734375 219.535156 323.789062 207.328125 332.792969 198.324219 C 341.792969 189.324219 354.003906 184.265625 366.734375 184.265625 Z M 366.734375 184.265625 " clip-rule="nonzero"/></clipPath><clipPath id="a93b3b5d2e"><path d="M 0.734375 0.265625 L 241.679688 0.265625 L 241.679688 204.519531 L 0.734375 204.519531 Z M 0.734375 0.265625 " clip-rule="nonzero"/></clipPath><clipPath id="9e7bc08091"><path d="M 48.734375 0.265625 L 193.601562 0.265625 C 206.332031 0.265625 218.542969 5.324219 227.542969 14.324219 C 236.546875 23.328125 241.601562 35.535156 241.601562 48.265625 L 241.601562 156.519531 C 241.601562 169.25 236.546875 181.457031 227.542969 190.460938 C 218.542969 199.460938 206.332031 204.519531 193.601562 204.519531 L 48.734375 204.519531 C 36.003906 204.519531 23.792969 199.460938 14.792969 190.460938 C 5.789062 181.457031 0.734375 169.25 0.734375 156.519531 L 0.734375 48.265625 C 0.734375 35.535156 5.789062 23.328125 14.792969 14.324219 C 23.792969 5.324219 36.003906 0.265625 48.734375 0.265625 Z M 48.734375 0.265625 " clip-rule="nonzero"/></clipPath><clipPath id="b64baa16dd"><rect x="0" width="242" y="0" height="205"/></clipPath><clipPath id="189466371d"><path d="M 333.886719 205.257812 L 542.179688 205.257812 L 542.179688 323.230469 L 333.886719 323.230469 Z M 333.886719 205.257812 " clip-rule="nonzero"/></clipPath><clipPath id="dccfc21cb8"><path d="M 378.136719 205.257812 L 497.875 205.257812 C 509.613281 205.257812 520.867188 209.921875 529.167969 218.21875 C 537.464844 226.519531 542.125 237.773438 542.125 249.507812 L 542.125 278.980469 C 542.125 290.714844 537.464844 301.96875 529.167969 310.269531 C 520.867188 318.566406 509.613281 323.230469 497.875 323.230469 L 378.136719 323.230469 C 366.402344 323.230469 355.148438 318.566406 346.847656 310.269531 C 338.550781 301.96875 333.886719 290.714844 333.886719 278.980469 L 333.886719 249.507812 C 333.886719 237.773438 338.550781 226.519531 346.847656 218.21875 C 355.148438 209.921875 366.402344 205.257812 378.136719 205.257812 Z M 378.136719 205.257812 " clip-rule="nonzero"/></clipPath><clipPath id="e086eda574"><path d="M 0.886719 0.257812 L 209.160156 0.257812 L 209.160156 118.230469 L 0.886719 118.230469 Z M 0.886719 0.257812 " clip-rule="nonzero"/></clipPath><clipPath id="6d20de6771"><path d="M 45.136719 0.257812 L 164.875 0.257812 C 176.613281 0.257812 187.867188 4.921875 196.167969 13.21875 C 204.464844 21.519531 209.125 32.773438 209.125 44.507812 L 209.125 73.980469 C 209.125 85.714844 204.464844 96.96875 196.167969 105.269531 C 187.867188 113.566406 176.613281 118.230469 164.875 118.230469 L 45.136719 118.230469 C 33.402344 118.230469 22.148438 113.566406 13.847656 105.269531 C 5.550781 96.96875 0.886719 85.714844 0.886719 73.980469 L 0.886719 44.507812 C 0.886719 32.773438 5.550781 21.519531 13.847656 13.21875 C 22.148438 4.921875 33.402344 0.257812 45.136719 0.257812 Z M 45.136719 0.257812 " clip-rule="nonzero"/></clipPath><clipPath id="8be570ac15"><rect x="0" width="210" y="0" height="119"/></clipPath><clipPath id="e1d9ff5dfe"><path d="M 446.066406 234.601562 L 510.675781 234.601562 L 510.675781 293.886719 L 446.066406 293.886719 Z M 446.066406 234.601562 " clip-rule="nonzero"/></clipPath><clipPath id="2cb6426722"><path d="M 467.066406 234.601562 L 489.449219 234.601562 C 501.050781 234.601562 510.449219 244.003906 510.449219 255.601562 L 510.449219 272.886719 C 510.449219 284.484375 501.050781 293.886719 489.449219 293.886719 L 467.066406 293.886719 C 455.46875 293.886719 446.066406 284.484375 446.066406 272.886719 L 446.066406 255.601562 C 446.066406 244.003906 455.46875 234.601562 467.066406 234.601562 Z M 467.066406 234.601562 " clip-rule="nonzero"/></clipPath><clipPath id="c4c305a60d"><path d="M 0.0664062 0.601562 L 64.480469 0.601562 L 64.480469 59.886719 L 0.0664062 59.886719 Z M 0.0664062 0.601562 " clip-rule="nonzero"/></clipPath><clipPath id="6bfa2278db"><path d="M 21.066406 0.601562 L 43.449219 0.601562 C 55.050781 0.601562 64.449219 10.003906 64.449219 21.601562 L 64.449219 38.886719 C 64.449219 50.484375 55.050781 59.886719 43.449219 59.886719 L 21.066406 59.886719 C 9.46875 59.886719 0.0664062 50.484375 0.0664062 38.886719 L 0.0664062 21.601562 C 0.0664062 10.003906 9.46875 0.601562 21.066406 0.601562 Z M 21.066406 0.601562 " clip-rule="nonzero"/></clipPath><clipPath id="e47b9c68e8"><rect x="0" width="65" y="0" height="60"/></clipPath><clipPath id="026ce64da1"><path d="M 367.886719 234.601562 L 432.496094 234.601562 L 432.496094 293.886719 L 367.886719 293.886719 Z M 367.886719 234.601562 " clip-rule="nonzero"/></clipPath><clipPath id="59d51de10e"><path d="M 388.886719 234.601562 L 411.269531 234.601562 C 422.867188 234.601562 432.269531 244.003906 432.269531 255.601562 L 432.269531 272.886719 C 432.269531 284.484375 422.867188 293.886719 411.269531 293.886719 L 388.886719 293.886719 C 377.289062 293.886719 367.886719 284.484375 367.886719 272.886719 L 367.886719 255.601562 C 367.886719 244.003906 377.289062 234.601562 388.886719 234.601562 Z M 388.886719 234.601562 " clip-rule="nonzero"/></clipPath><clipPath id="ece51dad85"><path d="M 0.886719 0.601562 L 65.480469 0.601562 L 65.480469 59.886719 L 0.886719 59.886719 Z M 0.886719 0.601562 " clip-rule="nonzero"/></clipPath><clipPath id="d626b57e84"><path d="M 21.886719 0.601562 L 44.269531 0.601562 C 55.867188 0.601562 65.269531 10.003906 65.269531 21.601562 L 65.269531 38.886719 C 65.269531 50.484375 55.867188 59.886719 44.269531 59.886719 L 21.886719 59.886719 C 10.289062 59.886719 0.886719 50.484375 0.886719 38.886719 L 0.886719 21.601562 C 0.886719 10.003906 10.289062 0.601562 21.886719 0.601562 Z M 21.886719 0.601562 " clip-rule="nonzero"/></clipPath><clipPath id="85d0232f74"><rect x="0" width="66" y="0" height="60"/></clipPath></defs><g clip-path="url(#e6831cef4c)"><g clip-path="url(#73491bc3e4)"><g clip-path="url(#15b3a5442a)"><g transform="matrix(1, 0, 0, 1, 259, 260)"><g clip-path="url(#f971f5508b)"><g clip-path="url(#11bbcd4366)"><g clip-path="url(#2f8a234bf2)"><g clip-path="url(#55bf9a412b)"><path fill="#245898" d="M -8.589844 50.667969 L 28.292969 -8.515625 L 158.453125 72.601562 L 121.566406 131.785156 Z M -8.589844 50.667969 " fill-opacity="1" fill-rule="nonzero"/></g></g></g></g></g></g></g></g><g clip-path="url(#59164230c0)"><g clip-path="url(#ca53bc4c05)"><g clip-path="url(#cd1532b2ad)"><g transform="matrix(1, 0, 0, 1, 210, 270)"><g clip-path="url(#f4b6ac8af1)"><g clip-path="url(#08a7251dba)"><g clip-path="url(#eaf92922ce)"><g clip-path="url(#8e53441b02)"><path fill="#337dd2" d="M -1.597656 41.511719 L 4.523438 -0.871094 L 74.886719 9.289062 L 68.765625 51.671875 Z M -1.597656 41.511719 " fill-opacity="1" fill-rule="nonzero"/></g></g></g></g></g></g></g></g><g clip-path="url(#8a6e896b55)"><g clip-path="url(#f478d521b5)"><g clip-path="url(#a29b25dc37)"><g transform="matrix(1, 0, 0, 1, 243, 215)"><g clip-path="url(#eee13b2868)"><g clip-path="url(#a13df6fb2d)"><g clip-path="url(#f3981b8844)"><g clip-path="url(#230c7d63ef)"><path fill="#337dd2" d="M -3.316406 16.484375 L 42.15625 -3.605469 L 73.464844 67.273438 L 27.992188 87.359375 Z M -3.316406 16.484375 " fill-opacity="1" fill-rule="nonzero"/></g></g></g></g></g></g></g></g><g clip-path="url(#c72f0fc974)"><g clip-path="url(#0402a0a275)"><g clip-path="url(#4ac33e009a)"><g transform="matrix(1, 0, 0, 1, 259, 269)"><g clip-path="url(#47c3f1d2ee)"><g clip-path="url(#6fe0e6be1e)"><g clip-path="url(#b4dcaf1000)"><g clip-path="url(#f0ec9cd86f)"><path fill="#337dd2" d="M -7.109375 37.289062 L 41.753906 -7.90625 L 61.773438 13.734375 L 12.910156 58.933594 Z M -7.109375 37.289062 " fill-opacity="1" fill-rule="nonzero"/></g></g></g></g></g></g></g></g><g clip-path="url(#ed122529f9)"><g clip-path="url(#86dab24277)"><g transform="matrix(1, 0, 0, 1, 318, 184)"><g clip-path="url(#b64baa16dd)"><g clip-path="url(#a93b3b5d2e)"><g clip-path="url(#9e7bc08091)"><path fill="#337dd2" d="M 0.734375 0.265625 L 241.6875 0.265625 L 241.6875 204.519531 L 0.734375 204.519531 Z M 0.734375 0.265625 " fill-opacity="1" fill-rule="nonzero"/></g></g></g></g></g></g><g clip-path="url(#189466371d)"><g clip-path="url(#dccfc21cb8)"><g transform="matrix(1, 0, 0, 1, 333, 205)"><g clip-path="url(#8be570ac15)"><g clip-path="url(#e086eda574)"><g clip-path="url(#6d20de6771)"><path fill="#255796" d="M 0.886719 0.257812 L 209.179688 0.257812 L 209.179688 118.230469 L 0.886719 118.230469 Z M 0.886719 0.257812 " fill-opacity="1" fill-rule="nonzero"/></g></g></g></g></g></g><g clip-path="url(#e1d9ff5dfe)"><g clip-path="url(#2cb6426722)"><g transform="matrix(1, 0, 0, 1, 446, 234)"><g clip-path="url(#e47b9c68e8)"><g clip-path="url(#c4c305a60d)"><g clip-path="url(#6bfa2278db)"><path fill="#f2f2f2" d="M 0.0664062 0.601562 L 64.445312 0.601562 L 64.445312 59.886719 L 0.0664062 59.886719 Z M 0.0664062 0.601562 " fill-opacity="1" fill-rule="nonzero"/></g></g></g></g></g></g><g clip-path="url(#026ce64da1)"><g clip-path="url(#59d51de10e)"><g transform="matrix(1, 0, 0, 1, 367, 234)"><g clip-path="url(#85d0232f74)"><g clip-path="url(#ece51dad85)"><g clip-path="url(#d626b57e84)"><path fill="#f2f2f2" d="M 0.886719 0.601562 L 65.265625 0.601562 L 65.265625 59.886719 L 0.886719 59.886719 Z M 0.886719 0.601562 " fill-opacity="1" fill-rule="nonzero"/></g></g></g></g></g></g></svg>