<svg xmlns="http://www.w3.org/2000/svg" xmlns:xlink="http://www.w3.org/1999/xlink" width="1920" zoomAndPan="magnify" viewBox="0 0 1440 809.999993" height="1080" preserveAspectRatio="xMidYMid meet" version="1.0"><defs><clipPath id="ae35e94719"><path d="M 595 377 L 745 377 L 745 500 L 595 500 Z M 595 377 " clip-rule="nonzero"/></clipPath><clipPath id="b8e72ba2b7"><path d="M 586.410156 427.671875 L 623.292969 368.488281 L 753.453125 449.601562 L 716.566406 508.785156 Z M 586.410156 427.671875 " clip-rule="nonzero"/></clipPath><clipPath id="1173bf99f8"><path d="M 599.5 406.664062 L 610.203125 389.492188 C 617.433594 377.890625 632.699219 374.347656 644.300781 381.578125 L 732.355469 436.457031 C 743.957031 443.6875 747.5 458.949219 740.269531 470.550781 L 729.566406 487.726562 C 722.339844 499.324219 707.074219 502.867188 695.472656 495.640625 L 607.414062 440.761719 C 595.816406 433.53125 592.269531 418.265625 599.5 406.664062 Z M 599.5 406.664062 " clip-rule="nonzero"/></clipPath><clipPath id="e9f5567812"><path d="M 0 0 L 150 0 L 150 123 L 0 123 Z M 0 0 " clip-rule="nonzero"/></clipPath><clipPath id="2b366dcc11"><path d="M -8.589844 50.671875 L 28.292969 -8.511719 L 158.453125 72.601562 L 121.566406 131.785156 Z M -8.589844 50.671875 " clip-rule="nonzero"/></clipPath><clipPath id="bdf5e3a1d7"><path d="M 4.5 29.664062 L 15.203125 12.492188 C 22.433594 0.890625 37.699219 -2.652344 49.300781 4.578125 L 137.355469 59.457031 C 148.957031 66.6875 152.5 81.949219 145.269531 93.550781 L 134.566406 110.726562 C 127.339844 122.324219 112.074219 125.867188 100.472656 118.640625 L 12.414062 63.761719 C 0.816406 56.53125 -2.730469 41.265625 4.5 29.664062 Z M 4.5 29.664062 " clip-rule="nonzero"/></clipPath><clipPath id="2646686906"><rect x="0" width="150" y="0" height="123"/></clipPath><clipPath id="285f738d93"><path d="M 558 396 L 633 396 L 633 452 L 558 452 Z M 558 396 " clip-rule="nonzero"/></clipPath><clipPath id="eed428a9e6"><path d="M 567.601562 455.140625 L 554.941406 414.230469 L 622.859375 393.21875 L 635.515625 434.128906 Z M 567.601562 455.140625 " clip-rule="nonzero"/></clipPath><clipPath id="39df2270d2"><path d="M 563.832031 442.960938 L 558.710938 426.414062 C 557.710938 423.183594 558.035156 419.6875 559.613281 416.695312 C 561.191406 413.703125 563.894531 411.464844 567.125 410.464844 L 610.601562 397.011719 C 613.832031 396.011719 617.328125 396.335938 620.320312 397.914062 C 623.3125 399.492188 625.554688 402.191406 626.550781 405.421875 L 631.671875 421.972656 C 632.671875 425.203125 632.347656 428.695312 630.769531 431.6875 C 629.191406 434.679688 626.492188 436.921875 623.261719 437.921875 L 579.78125 451.371094 C 576.550781 452.371094 573.054688 452.046875 570.066406 450.46875 C 567.074219 448.894531 564.832031 446.191406 563.832031 442.960938 Z M 563.832031 442.960938 " clip-rule="nonzero"/></clipPath><clipPath id="ac540d2b2e"><path d="M 0 0 L 74.878906 0 L 74.878906 56 L 0 56 Z M 0 0 " clip-rule="nonzero"/></clipPath><clipPath id="6de72e38a4"><path d="M 9.601562 59.140625 L -3.058594 18.230469 L 64.859375 -2.78125 L 77.515625 38.128906 Z M 9.601562 59.140625 " clip-rule="nonzero"/></clipPath><clipPath id="105e42a467"><path d="M 5.832031 46.960938 L 0.710938 30.414062 C -0.289062 27.183594 0.0351562 23.6875 1.613281 20.695312 C 3.191406 17.703125 5.894531 15.464844 9.125 14.464844 L 52.601562 1.011719 C 55.832031 0.0117188 59.328125 0.335938 62.320312 1.914062 C 65.3125 3.492188 67.554688 6.191406 68.550781 9.421875 L 73.671875 25.972656 C 74.671875 29.203125 74.347656 32.695312 72.769531 35.6875 C 71.191406 38.679688 68.492188 40.921875 65.261719 41.921875 L 21.78125 55.371094 C 18.550781 56.371094 15.054688 56.046875 12.066406 54.46875 C 9.074219 52.894531 6.832031 50.191406 5.832031 46.960938 Z M 5.832031 46.960938 " clip-rule="nonzero"/></clipPath><clipPath id="5a576156bf"><rect x="0" width="75" y="0" height="56"/></clipPath><clipPath id="8b14cda827"><path d="M 566 337 L 648 337 L 648 415 L 566 415 Z M 566 337 " clip-rule="nonzero"/></clipPath><clipPath id="8115669f30"><path d="M 561.515625 369.433594 L 593.96875 331.777344 L 652.664062 382.363281 L 620.207031 420.019531 Z M 561.515625 369.433594 " clip-rule="nonzero"/></clipPath><clipPath id="9fb73ce034"><path d="M 569.839844 359.777344 L 585.648438 341.433594 C 587.855469 338.875 590.988281 337.292969 594.363281 337.042969 C 597.734375 336.792969 601.066406 337.894531 603.628906 340.101562 L 643 374.035156 C 645.5625 376.242188 647.140625 379.375 647.390625 382.746094 C 647.640625 386.121094 646.542969 389.453125 644.335938 392.015625 L 628.527344 410.355469 C 626.320312 412.917969 623.183594 414.496094 619.8125 414.75 C 616.441406 415 613.105469 413.898438 610.546875 411.691406 L 571.171875 377.757812 C 568.613281 375.550781 567.03125 372.414062 566.78125 369.042969 C 566.53125 365.671875 567.632812 362.335938 569.839844 359.777344 Z M 569.839844 359.777344 " clip-rule="nonzero"/></clipPath><clipPath id="6dd0281071"><path d="M 0.398438 0 L 81.761719 0 L 81.761719 78 L 0.398438 78 Z M 0.398438 0 " clip-rule="nonzero"/></clipPath><clipPath id="44196425ba"><path d="M -4.484375 32.433594 L 27.96875 -5.222656 L 86.664062 45.363281 L 54.207031 83.019531 Z M -4.484375 32.433594 " clip-rule="nonzero"/></clipPath><clipPath id="dc0cb30619"><path d="M 3.839844 22.777344 L 19.648438 4.433594 C 21.855469 1.875 24.988281 0.292969 28.363281 0.0429688 C 31.734375 -0.207031 35.066406 0.894531 37.628906 3.101562 L 77 37.035156 C 79.5625 39.242188 81.140625 42.375 81.390625 45.746094 C 81.640625 49.121094 80.542969 52.453125 78.335938 55.015625 L 62.527344 73.355469 C 60.320312 75.917969 57.183594 77.496094 53.8125 77.75 C 50.441406 78 47.105469 76.898438 44.546875 74.691406 L 5.171875 40.757812 C 2.613281 38.550781 1.03125 35.414062 0.78125 32.042969 C 0.53125 28.671875 1.632812 25.335938 3.839844 22.777344 Z M 3.839844 22.777344 " clip-rule="nonzero"/></clipPath><clipPath id="8f5a46475c"><rect x="0" width="82" y="0" height="78"/></clipPath><clipPath id="22fb977dc5"><path d="M 612 375 L 650 375 L 650 438 L 612 438 Z M 612 375 " clip-rule="nonzero"/></clipPath><clipPath id="83e5878aeb"><path d="M 604.644531 431.765625 L 629.386719 369.972656 L 656.753906 380.929688 L 632.011719 442.722656 Z M 604.644531 431.765625 " clip-rule="nonzero"/></clipPath><clipPath id="1fbcc8fd44"><path d="M 617.003906 400.890625 C 610.179688 417.941406 610.769531 434.21875 618.328125 437.242188 C 625.886719 440.269531 637.546875 428.902344 644.371094 411.851562 C 651.199219 394.800781 650.605469 378.523438 643.050781 375.5 C 635.492188 372.472656 623.832031 383.84375 617.003906 400.890625 Z M 617.003906 400.890625 " clip-rule="nonzero"/></clipPath><clipPath id="2889f30803"><path d="M 0 0 L 38 0 L 38 63 L 0 63 Z M 0 0 " clip-rule="nonzero"/></clipPath><clipPath id="66f6815b9a"><path d="M -7.355469 56.765625 L 17.386719 -5.027344 L 44.753906 5.929688 L 20.011719 67.722656 Z M -7.355469 56.765625 " clip-rule="nonzero"/></clipPath><clipPath id="56321ec6d0"><path d="M 5.003906 25.890625 C -1.820312 42.941406 -1.230469 59.21875 6.328125 62.242188 C 13.886719 65.269531 25.546875 53.902344 32.371094 36.851562 C 39.199219 19.800781 38.605469 3.523438 31.050781 0.5 C 23.492188 -2.527344 11.832031 8.84375 5.003906 25.890625 Z M 5.003906 25.890625 " clip-rule="nonzero"/></clipPath><clipPath id="919c3f6af9"><rect x="0" width="38" y="0" height="63"/></clipPath><clipPath id="c5c8462f76"><path d="M 654.734375 301.265625 L 895.683594 301.265625 L 895.683594 505.515625 L 654.734375 505.515625 Z M 654.734375 301.265625 " clip-rule="nonzero"/></clipPath><clipPath id="806e8ae709"><path d="M 702.734375 301.265625 L 847.601562 301.265625 C 860.332031 301.265625 872.539062 306.324219 881.542969 315.324219 C 890.542969 324.328125 895.601562 336.535156 895.601562 349.265625 L 895.601562 457.515625 C 895.601562 470.246094 890.542969 482.457031 881.542969 491.457031 C 872.539062 500.460938 860.332031 505.515625 847.601562 505.515625 L 702.734375 505.515625 C 690.003906 505.515625 677.792969 500.460938 668.792969 491.457031 C 659.789062 482.457031 654.734375 470.246094 654.734375 457.515625 L 654.734375 349.265625 C 654.734375 336.535156 659.789062 324.328125 668.792969 315.324219 C 677.792969 306.324219 690.003906 301.265625 702.734375 301.265625 Z M 702.734375 301.265625 " clip-rule="nonzero"/></clipPath><clipPath id="ca2dfa620e"><path d="M 0.734375 0.265625 L 241.679688 0.265625 L 241.679688 204.515625 L 0.734375 204.515625 Z M 0.734375 0.265625 " clip-rule="nonzero"/></clipPath><clipPath id="c33a6f1a69"><path d="M 48.734375 0.265625 L 193.601562 0.265625 C 206.332031 0.265625 218.539062 5.324219 227.542969 14.324219 C 236.542969 23.328125 241.601562 35.535156 241.601562 48.265625 L 241.601562 156.515625 C 241.601562 169.246094 236.542969 181.457031 227.542969 190.457031 C 218.539062 199.460938 206.332031 204.515625 193.601562 204.515625 L 48.734375 204.515625 C 36.003906 204.515625 23.792969 199.460938 14.792969 190.457031 C 5.789062 181.457031 0.734375 169.246094 0.734375 156.515625 L 0.734375 48.265625 C 0.734375 35.535156 5.789062 23.328125 14.792969 14.324219 C 23.792969 5.324219 36.003906 0.265625 48.734375 0.265625 Z M 48.734375 0.265625 " clip-rule="nonzero"/></clipPath><clipPath id="7cb878696f"><rect x="0" width="242" y="0" height="205"/></clipPath><clipPath id="934e45f18c"><path d="M 669.886719 322.261719 L 878.175781 322.261719 L 878.175781 440.230469 L 669.886719 440.230469 Z M 669.886719 322.261719 " clip-rule="nonzero"/></clipPath><clipPath id="9f6f1440c1"><path d="M 714.136719 322.261719 L 833.875 322.261719 C 845.609375 322.261719 856.867188 326.921875 865.164062 335.21875 C 873.464844 343.519531 878.125 354.773438 878.125 366.511719 L 878.125 395.980469 C 878.125 407.714844 873.464844 418.972656 865.164062 427.269531 C 856.867188 435.566406 845.609375 440.230469 833.875 440.230469 L 714.136719 440.230469 C 702.398438 440.230469 691.144531 435.566406 682.847656 427.269531 C 674.546875 418.972656 669.886719 407.714844 669.886719 395.980469 L 669.886719 366.511719 C 669.886719 354.773438 674.546875 343.519531 682.847656 335.21875 C 691.144531 326.921875 702.398438 322.261719 714.136719 322.261719 Z M 714.136719 322.261719 " clip-rule="nonzero"/></clipPath><clipPath id="36a1112fd5"><path d="M 0.886719 0.261719 L 209.160156 0.261719 L 209.160156 118.230469 L 0.886719 118.230469 Z M 0.886719 0.261719 " clip-rule="nonzero"/></clipPath><clipPath id="a0ee30103b"><path d="M 45.136719 0.261719 L 164.875 0.261719 C 176.609375 0.261719 187.867188 4.921875 196.164062 13.21875 C 204.464844 21.519531 209.125 32.773438 209.125 44.511719 L 209.125 73.980469 C 209.125 85.714844 204.464844 96.972656 196.164062 105.269531 C 187.867188 113.566406 176.609375 118.230469 164.875 118.230469 L 45.136719 118.230469 C 33.398438 118.230469 22.144531 113.566406 13.847656 105.269531 C 5.546875 96.972656 0.886719 85.714844 0.886719 73.980469 L 0.886719 44.511719 C 0.886719 32.773438 5.546875 21.519531 13.847656 13.21875 C 22.144531 4.921875 33.398438 0.261719 45.136719 0.261719 Z M 45.136719 0.261719 " clip-rule="nonzero"/></clipPath><clipPath id="6fe9b22917"><rect x="0" width="210" y="0" height="119"/></clipPath><clipPath id="31dfcfe203"><path d="M 782.0625 351.601562 L 846.675781 351.601562 L 846.675781 410.886719 L 782.0625 410.886719 Z M 782.0625 351.601562 " clip-rule="nonzero"/></clipPath><clipPath id="4c311a039a"><path d="M 803.0625 351.601562 L 825.449219 351.601562 C 837.046875 351.601562 846.449219 361.003906 846.449219 372.601562 L 846.449219 389.886719 C 846.449219 401.484375 837.046875 410.886719 825.449219 410.886719 L 803.0625 410.886719 C 791.464844 410.886719 782.0625 401.484375 782.0625 389.886719 L 782.0625 372.601562 C 782.0625 361.003906 791.464844 351.601562 803.0625 351.601562 Z M 803.0625 351.601562 " clip-rule="nonzero"/></clipPath><clipPath id="43f4b2ed6b"><path d="M 0.0625 0.601562 L 64.480469 0.601562 L 64.480469 59.886719 L 0.0625 59.886719 Z M 0.0625 0.601562 " clip-rule="nonzero"/></clipPath><clipPath id="06de64704c"><path d="M 21.0625 0.601562 L 43.449219 0.601562 C 55.046875 0.601562 64.449219 10.003906 64.449219 21.601562 L 64.449219 38.886719 C 64.449219 50.484375 55.046875 59.886719 43.449219 59.886719 L 21.0625 59.886719 C 9.464844 59.886719 0.0625 50.484375 0.0625 38.886719 L 0.0625 21.601562 C 0.0625 10.003906 9.464844 0.601562 21.0625 0.601562 Z M 21.0625 0.601562 " clip-rule="nonzero"/></clipPath><clipPath id="068bd04e73"><rect x="0" width="65" y="0" height="60"/></clipPath><clipPath id="457184ace4"><path d="M 703.882812 351.601562 L 768.496094 351.601562 L 768.496094 410.886719 L 703.882812 410.886719 Z M 703.882812 351.601562 " clip-rule="nonzero"/></clipPath><clipPath id="b41fae5cd7"><path d="M 724.882812 351.601562 L 747.265625 351.601562 C 758.867188 351.601562 768.265625 361.003906 768.265625 372.601562 L 768.265625 389.886719 C 768.265625 401.484375 758.867188 410.886719 747.265625 410.886719 L 724.882812 410.886719 C 713.285156 410.886719 703.882812 401.484375 703.882812 389.886719 L 703.882812 372.601562 C 703.882812 361.003906 713.285156 351.601562 724.882812 351.601562 Z M 724.882812 351.601562 " clip-rule="nonzero"/></clipPath><clipPath id="d448c46196"><path d="M 0.882812 0.601562 L 65.480469 0.601562 L 65.480469 59.886719 L 0.882812 59.886719 Z M 0.882812 0.601562 " clip-rule="nonzero"/></clipPath><clipPath id="dfa1eed662"><path d="M 21.882812 0.601562 L 44.265625 0.601562 C 55.867188 0.601562 65.265625 10.003906 65.265625 21.601562 L 65.265625 38.886719 C 65.265625 50.484375 55.867188 59.886719 44.265625 59.886719 L 21.882812 59.886719 C 10.285156 59.886719 0.882812 50.484375 0.882812 38.886719 L 0.882812 21.601562 C 0.882812 10.003906 10.285156 0.601562 21.882812 0.601562 Z M 21.882812 0.601562 " clip-rule="nonzero"/></clipPath><clipPath id="6e7507d1f5"><rect x="0" width="66" y="0" height="60"/></clipPath></defs><g clip-path="url(#ae35e94719)"><g clip-path="url(#b8e72ba2b7)"><g clip-path="url(#1173bf99f8)"><g transform="matrix(1, 0, 0, 1, 595, 377)"><g clip-path="url(#2646686906)"><g clip-path="url(#e9f5567812)"><g clip-path="url(#2b366dcc11)"><g clip-path="url(#bdf5e3a1d7)"><path fill="#245898" d="M -8.589844 50.671875 L 28.292969 -8.511719 L 158.453125 72.601562 L 121.566406 131.785156 Z M -8.589844 50.671875 " fill-opacity="1" fill-rule="nonzero"/></g></g></g></g></g></g></g></g><g clip-path="url(#285f738d93)"><g clip-path="url(#eed428a9e6)"><g clip-path="url(#39df2270d2)"><g transform="matrix(1, 0, 0, 1, 558, 396)"><g clip-path="url(#5a576156bf)"><g clip-path="url(#ac540d2b2e)"><g clip-path="url(#6de72e38a4)"><g clip-path="url(#105e42a467)"><path fill="#337dd2" d="M 9.601562 59.140625 L -3.058594 18.230469 L 64.859375 -2.78125 L 77.515625 38.128906 Z M 9.601562 59.140625 " fill-opacity="1" fill-rule="nonzero"/></g></g></g></g></g></g></g></g><g clip-path="url(#8b14cda827)"><g clip-path="url(#8115669f30)"><g clip-path="url(#9fb73ce034)"><g transform="matrix(1, 0, 0, 1, 566, 337)"><g clip-path="url(#8f5a46475c)"><g clip-path="url(#6dd0281071)"><g clip-path="url(#44196425ba)"><g clip-path="url(#dc0cb30619)"><path fill="#337dd2" d="M -4.484375 32.433594 L 27.96875 -5.222656 L 86.664062 45.363281 L 54.207031 83.019531 Z M -4.484375 32.433594 " fill-opacity="1" fill-rule="nonzero"/></g></g></g></g></g></g></g></g><g clip-path="url(#22fb977dc5)"><g clip-path="url(#83e5878aeb)"><g clip-path="url(#1fbcc8fd44)"><g transform="matrix(1, 0, 0, 1, 612, 375)"><g clip-path="url(#919c3f6af9)"><g clip-path="url(#2889f30803)"><g clip-path="url(#66f6815b9a)"><g clip-path="url(#56321ec6d0)"><path fill="#337dd2" d="M -7.355469 56.765625 L 17.386719 -5.027344 L 44.753906 5.929688 L 20.011719 67.722656 Z M -7.355469 56.765625 " fill-opacity="1" fill-rule="nonzero"/></g></g></g></g></g></g></g></g><g clip-path="url(#c5c8462f76)"><g clip-path="url(#806e8ae709)"><g transform="matrix(1, 0, 0, 1, 654, 301)"><g clip-path="url(#7cb878696f)"><g clip-path="url(#ca2dfa620e)"><g clip-path="url(#c33a6f1a69)"><path fill="#337dd2" d="M 0.734375 0.265625 L 241.683594 0.265625 L 241.683594 204.515625 L 0.734375 204.515625 Z M 0.734375 0.265625 " fill-opacity="1" fill-rule="nonzero"/></g></g></g></g></g></g><g clip-path="url(#934e45f18c)"><g clip-path="url(#9f6f1440c1)"><g transform="matrix(1, 0, 0, 1, 669, 322)"><g clip-path="url(#6fe9b22917)"><g clip-path="url(#36a1112fd5)"><g clip-path="url(#a0ee30103b)"><path fill="#255796" d="M 0.886719 0.261719 L 209.175781 0.261719 L 209.175781 118.230469 L 0.886719 118.230469 Z M 0.886719 0.261719 " fill-opacity="1" fill-rule="nonzero"/></g></g></g></g></g></g><g clip-path="url(#31dfcfe203)"><g clip-path="url(#4c311a039a)"><g transform="matrix(1, 0, 0, 1, 782, 351)"><g clip-path="url(#068bd04e73)"><g clip-path="url(#43f4b2ed6b)"><g clip-path="url(#06de64704c)"><path fill="#f2f2f2" d="M 0.0625 0.601562 L 64.445312 0.601562 L 64.445312 59.886719 L 0.0625 59.886719 Z M 0.0625 0.601562 " fill-opacity="1" fill-rule="nonzero"/></g></g></g></g></g></g><g clip-path="url(#457184ace4)"><g clip-path="url(#b41fae5cd7)"><g transform="matrix(1, 0, 0, 1, 703, 351)"><g clip-path="url(#6e7507d1f5)"><g clip-path="url(#d448c46196)"><g clip-path="url(#dfa1eed662)"><path fill="#f2f2f2" d="M 0.882812 0.601562 L 65.261719 0.601562 L 65.261719 59.886719 L 0.882812 59.886719 Z M 0.882812 0.601562 " fill-opacity="1" fill-rule="nonzero"/></g></g></g></g></g></g></svg>